<?xml version="1.0" encoding="UTF-8" standalone="no"?>
<!DOCTYPE svg PUBLIC "-//W3C//DTD SVG 1.1//EN" "http://www.w3.org/Graphics/SVG/1.1/DTD/svg11.dtd">
<svg xmlns="http://www.w3.org/2000/svg" xmlns:xlink="http://www.w3.org/1999/xlink" version="1.1" width="340.157pt" height="340.157pt" viewBox="0 0 340.157 340.157">
<g enable-background="new">
<g id="Layer-1" data-name="Warstwa 1">
<clipPath id="cp0">
<path transform="matrix(1,0,0,-1,0,340.157)" d="M 0 340.157 L 340.157 340.157 L 340.157 0 L 0 0 Z "/>
</clipPath>
<g clip-path="url(#cp0)">
<path transform="matrix(1,0,0,-1,238.2816,85.785617)" d="M 0 0 L 48.156 0 L 40.059 -94.822 L 7.885 -94.822 Z M 6.606 -144.576 C 2.058 -140.244 -.213 -134.954 -.213 -128.701 C -.213 -122.309 2.058 -117.055 6.606 -112.933 C 11.151 -108.815 16.973 -106.754 24.078 -106.754 C 31.18 -106.754 36.97 -108.815 41.444 -112.933 C 45.919 -117.055 48.156 -122.309 48.156 -128.701 C 48.156 -134.954 45.883 -140.244 41.338 -144.576 C 36.79 -148.91 31.037 -151.074 24.078 -151.074 C 16.973 -151.074 11.151 -148.91 6.606 -144.576 " fill="#ffffff"/>
<path transform="matrix(1,0,0,-1,248.5016,102.55061)" d="M 0 0 C -.478 0 -.955 .182 -1.32 .547 C -2.049 1.276 -2.049 2.458 -1.32 3.187 L 5.247 9.754 C 5.977 10.483 7.158 10.483 7.887 9.754 C 8.616 9.025 8.616 7.843 7.887 7.114 L 1.32 .547 C .955 .182 .478 0 0 0 " fill="#f4ea14"/>
<path transform="matrix(1,0,0,-1,255.353,230.93282)" d="M 0 0 C -.478 0 -.955 .182 -1.32 .547 L -7.921 7.147 C -8.65 7.876 -8.65 9.058 -7.921 9.787 C -7.193 10.516 -6.01 10.516 -5.281 9.787 L 1.32 3.187 C 2.049 2.458 2.049 1.276 1.32 .547 C .956 .182 .478 0 0 0 " fill="#f4ea14"/>
<path transform="matrix(1,0,0,-1,265.3681,153.11222)" d="M 0 0 C -.478 0 -.956 .182 -1.32 .547 C -2.049 1.276 -2.049 2.458 -1.32 3.187 L 5.28 9.787 C 6.01 10.516 7.191 10.516 7.92 9.787 C 8.649 9.058 8.649 7.876 7.92 7.147 L 1.32 .547 C .956 .182 .478 0 0 0 " fill="#f4ea14"/>
<path transform="matrix(1,0,0,-1,258.607,212.07)" d="M 0 0 C -.786 0 -1.519 .501 -1.774 1.29 L -4.646 10.123 C -4.965 11.103 -4.428 12.156 -3.448 12.475 C -2.467 12.792 -1.414 12.258 -1.095 11.277 L 1.776 2.444 C 2.095 1.464 1.558 .411 .578 .092 C .386 .03 .191 0 0 0 " fill="#7dd0dd"/>
<path transform="matrix(1,0,0,-1,274.1455,112.73912)" d="M 0 0 C -.478 0 -.956 .182 -1.32 .547 L -7.887 7.114 C -8.616 7.843 -8.616 9.025 -7.887 9.754 C -7.158 10.483 -5.976 10.483 -5.247 9.754 L 1.32 3.187 C 2.049 2.458 2.049 1.276 1.32 .547 C .956 .182 .478 0 0 0 " fill="#7dd0dd"/>
<path transform="matrix(1,0,0,-1,260.8271,168.99402)" d="M 0 0 C -.478 0 -.955 .182 -1.32 .547 L -7.887 7.114 C -8.616 7.843 -8.616 9.025 -7.887 9.754 C -7.158 10.483 -5.977 10.483 -5.247 9.754 L 1.32 3.187 C 2.049 2.458 2.049 1.276 1.32 .547 C .955 .182 .478 0 0 0 " fill="#bf529e"/>
<path transform="matrix(1,0,0,-1,270.1823,220.99051)" d="M 0 0 C -.317 0 -.637 .081 -.932 .25 C -1.824 .766 -2.131 1.908 -1.615 2.801 L 3.029 10.844 C 3.543 11.736 4.685 12.042 5.579 11.527 C 6.471 11.011 6.777 9.87 6.262 8.977 L 1.618 .934 C 1.273 .335 .645 0 0 0 " fill="#bf529e"/>
<path transform="matrix(1,0,0,-1,254.1481,132.93752)" d="M 0 0 C -.513 0 -1.023 .21 -1.392 .622 C -2.079 1.391 -2.014 2.571 -1.245 3.258 L 5.677 9.449 C 6.446 10.136 7.626 10.07 8.313 9.302 C 9 8.534 8.935 7.354 8.166 6.666 L 1.244 .475 C .888 .157 .443 0 0 0 " fill="#bf529e"/>
<path transform="matrix(1,0,0,-1,82.5457,168.17722)" d="M 0 0 L -24.555 0 L -24.555 21.005 L 0 21.005 C 10.255 21.005 15.384 17.503 15.384 10.502 C 15.384 3.499 10.255 0 0 0 M -24.555 61.239 L -4.438 61.239 C 5.422 61.239 10.354 57.934 10.354 51.328 C 10.354 44.621 5.422 41.27 -4.438 41.27 L -24.555 41.27 Z M 26.034 32.839 C 30.471 35.106 33.897 38.187 36.314 42.083 C 38.73 45.978 39.939 50.39 39.939 55.322 C 39.939 63.606 36.486 70.188 29.584 75.07 C 22.68 79.951 12.622 82.392 -.592 82.392 L -53.547 82.392 L -53.547 -21.153 L 2.367 -21.153 C 16.172 -21.153 26.723 -18.689 34.022 -13.757 C 41.318 -8.827 44.968 -1.826 44.968 7.248 C 44.968 13.461 43.29 18.76 39.939 23.15 C 36.585 27.536 31.951 30.767 26.034 32.839 " fill="#ffffff"/>
<path transform="matrix(1,0,0,-1,225.88,166.6979)" d="M 0 0 L -54.139 0 L -54.139 18.934 L -8.136 18.934 L -8.136 40.826 L -54.139 40.826 L -54.139 58.281 L -1.922 58.281 L -1.922 80.912 L -83.131 80.912 L -83.131 -22.632 L 0 -22.632 Z " fill="#ffffff"/>
<path transform="matrix(1,0,0,-1,54.2902,213.24362)" d="M 0 0 L -14.591 0 L -14.591 14.213 L -25.292 14.213 L -25.292 -23.616 L -14.591 -23.616 L -14.591 -8.863 L 0 -8.863 L 0 -23.616 L 10.7 -23.616 L 10.7 14.213 L 0 14.213 Z " fill="#ffffff"/>
<path transform="matrix(1,0,0,-1,85.0403,221.62001)" d="M 0 0 L 4.864 12.105 L 9.728 0 Z M -.324 22.59 L -17.023 -15.24 L -6.107 -15.24 L -3.135 -7.89 L 12.862 -7.89 L 15.834 -15.24 L 26.967 -15.24 L 10.214 22.59 Z " fill="#ffffff"/>
<path transform="matrix(1,0,0,-1,136.6504,217.10752)" d="M 0 0 C -1.117 -.955 -2.775 -1.432 -4.972 -1.432 L -10.916 -1.432 L -10.916 9.646 L -4.972 9.646 C -2.775 9.646 -1.117 9.16 0 8.187 C 1.116 7.215 1.675 5.845 1.675 4.08 C 1.675 2.315 1.116 .954 0 0 M 4.594 16.375 C 2.071 17.51 -.901 18.077 -4.323 18.077 L -21.617 18.077 L -21.617 -19.753 L -10.916 -19.753 L -10.916 -9.863 L -4.323 -9.863 C -.901 -9.863 2.071 -9.295 4.594 -8.16 C 7.115 -7.026 9.06 -5.414 10.43 -3.324 C 11.799 -1.234 12.484 1.234 12.484 4.08 C 12.484 6.926 11.799 9.403 10.43 11.511 C 9.06 13.619 7.115 15.24 4.594 16.375 " fill="#ffffff"/>
<path transform="matrix(1,0,0,-1,175.9394,217.10752)" d="M 0 0 C -1.117 -.955 -2.775 -1.432 -4.972 -1.432 L -10.917 -1.432 L -10.917 9.646 L -4.972 9.646 C -2.775 9.646 -1.117 9.16 0 8.187 C 1.116 7.215 1.675 5.845 1.675 4.08 C 1.675 2.315 1.116 .954 0 0 M 4.594 16.375 C 2.071 17.51 -.901 18.077 -4.323 18.077 L -21.617 18.077 L -21.617 -19.753 L -10.917 -19.753 L -10.917 -9.863 L -4.323 -9.863 C -.901 -9.863 2.071 -9.295 4.594 -8.16 C 7.115 -7.026 9.06 -5.414 10.43 -3.324 C 11.799 -1.234 12.484 1.234 12.484 4.08 C 12.484 6.926 11.799 9.403 10.43 11.511 C 9.06 13.619 7.115 15.24 4.594 16.375 " fill="#ffffff"/>
<path transform="matrix(1,0,0,-1,217.9845,199.03052)" d="M 0 0 L -8.971 -15.024 L -17.942 0 L -29.237 0 L -14.807 -24.103 L -14.807 -37.83 L -4.107 -37.83 L -4.107 -24.265 L 10.376 0 Z " fill="#ffffff"/>
<path transform="matrix(1,0,0,-1,304.6009,92.99991)" d="M 0 0 C .36 .286 .541 .687 .541 1.204 C .541 1.721 .36 2.118 0 2.397 C -.361 2.676 -.867 2.816 -1.52 2.816 L -3.315 2.816 L -3.315 -.429 L -1.52 -.429 C -.867 -.429 -.361 -.286 0 0 M 1.439 -.367 C 1.139 -.803 .717 -1.116 .173 -1.306 L 2.03 -4.183 L .622 -4.183 L -1.071 -1.571 L -1.418 -1.571 L -3.295 -1.571 L -3.295 -4.183 L -4.683 -4.183 L -4.683 3.979 L -1.418 3.979 C -.398 3.979 .408 3.727 1 3.224 C 1.592 2.72 1.887 2.047 1.887 1.204 C 1.887 .592 1.738 .068 1.439 -.367 M 1.377 -5.55 C 2.329 -4.992 3.081 -4.231 3.632 -3.265 C 4.183 -2.299 4.458 -1.231 4.458 -.061 C 4.458 1.108 4.19 2.169 3.652 3.122 C 3.115 4.074 2.374 4.822 1.429 5.366 C .483 5.91 -.581 6.182 -1.765 6.182 C -2.935 6.182 -3.999 5.904 -4.958 5.346 C -5.917 4.788 -6.669 4.03 -7.213 3.071 C -7.757 2.112 -8.029 1.054 -8.029 -.102 C -8.029 -1.259 -7.757 -2.316 -7.213 -3.275 C -6.669 -4.234 -5.921 -4.992 -4.969 -5.55 C -4.017 -6.108 -2.962 -6.387 -1.806 -6.387 C -.636 -6.387 .425 -6.108 1.377 -5.55 M 1.897 6.162 C 2.992 5.536 3.853 4.676 4.479 3.581 C 5.104 2.486 5.418 1.272 5.418 -.061 C 5.418 -1.395 5.098 -2.615 4.458 -3.724 C 3.819 -4.833 2.948 -5.707 1.847 -6.346 C .745 -6.985 -.473 -7.305 -1.806 -7.305 C -3.139 -7.305 -4.353 -6.985 -5.448 -6.346 C -6.543 -5.707 -7.407 -4.836 -8.039 -3.734 C -8.672 -2.632 -8.988 -1.422 -8.988 -.102 C -8.988 1.217 -8.672 2.428 -8.039 3.53 C -7.407 4.632 -6.54 5.502 -5.437 6.142 C -4.336 6.781 -3.112 7.101 -1.765 7.101 C -.418 7.101 .803 6.788 1.897 6.162 " fill="#ffffff"/>
<path transform="matrix(1,0,0,-1,107.5843,277.53944)" d="M 0 0 L -.026 11.109 L -5.476 1.957 L -7.406 1.957 L -12.829 10.871 L -12.829 0 L -16.85 0 L -16.85 18.516 L -13.305 18.516 L -6.375 7.01 L .449 18.516 L 3.968 18.516 L 4.021 0 Z " fill="#ffffff"/>
<path transform="matrix(1,0,0,-1,120.1614,275.6614)" d="M 0 0 C -1.473 1.464 -2.208 3.554 -2.208 6.269 L -2.208 16.638 L 2.077 16.638 L 2.077 6.428 C 2.077 3.112 3.452 1.455 6.203 1.455 C 7.543 1.455 8.565 1.855 9.271 2.658 C 9.977 3.461 10.329 4.717 10.329 6.428 L 10.329 16.638 L 14.562 16.638 L 14.562 6.269 C 14.562 3.554 13.825 1.464 12.353 0 C 10.88 -1.464 8.821 -2.195 6.177 -2.195 C 3.531 -2.195 1.473 -1.464 0 0 " fill="#ffffff"/>
<path transform="matrix(1,0,0,-1,142.9095,277.26203)" d="M 0 0 C -1.367 .397 -2.465 .913 -3.294 1.548 L -1.839 4.774 C -1.045 4.193 -.103 3.726 .991 3.373 C 2.085 3.02 3.178 2.844 4.271 2.844 C 5.488 2.844 6.388 3.024 6.97 3.386 C 7.552 3.747 7.843 4.228 7.843 4.828 C 7.843 5.269 7.671 5.635 7.326 5.926 C 6.982 6.217 6.542 6.45 6.004 6.626 C 5.466 6.803 4.738 6.997 3.822 7.208 C 2.411 7.543 1.256 7.878 .356 8.214 C -.543 8.548 -1.314 9.086 -1.958 9.827 C -2.602 10.567 -2.923 11.555 -2.923 12.789 C -2.923 13.865 -2.632 14.84 -2.051 15.712 C -1.469 16.585 -.592 17.277 .581 17.789 C 1.754 18.3 3.187 18.556 4.88 18.556 C 6.062 18.556 7.216 18.414 8.345 18.133 C 9.474 17.851 10.461 17.445 11.308 16.916 L 9.985 13.662 C 8.274 14.632 6.563 15.117 4.854 15.117 C 3.654 15.117 2.768 14.923 2.195 14.535 C 1.622 14.147 1.335 13.636 1.335 13.001 C 1.335 12.366 1.666 11.895 2.327 11.586 C 2.988 11.277 3.998 10.973 5.356 10.674 C 6.767 10.338 7.922 10.003 8.821 9.668 C 9.721 9.333 10.491 8.804 11.136 8.081 C 11.779 7.358 12.101 6.379 12.101 5.146 C 12.101 4.087 11.806 3.122 11.215 2.249 C 10.624 1.376 9.737 .684 8.557 .172 C 7.375 -.339 5.937 -.595 4.245 -.595 C 2.781 -.595 1.366 -.396 0 0 " fill="#ffffff"/>
<path transform="matrix(1,0,0,-1,174.3987,274.10093)" d="M 0 0 L 0 -3.438 L -14.337 -3.438 L -14.337 15.077 L -.344 15.077 L -.344 11.639 L -10.078 11.639 L -10.078 7.618 L -1.481 7.618 L -1.481 4.285 L -10.078 4.285 L -10.078 0 Z " fill="#ffffff"/>
<path transform="matrix(1,0,0,-1,181.9769,275.6614)" d="M 0 0 C -1.473 1.464 -2.208 3.554 -2.208 6.269 L -2.208 16.638 L 2.077 16.638 L 2.077 6.428 C 2.077 3.112 3.452 1.455 6.203 1.455 C 7.543 1.455 8.565 1.855 9.271 2.658 C 9.977 3.461 10.329 4.717 10.329 6.428 L 10.329 16.638 L 14.562 16.638 L 14.562 6.269 C 14.562 3.554 13.825 1.464 12.353 0 C 10.88 -1.464 8.821 -2.195 6.177 -2.195 C 3.531 -2.195 1.473 -1.464 0 0 " fill="#ffffff"/>
<path transform="matrix(1,0,0,-1,219.7356,277.53944)" d="M 0 0 L -.026 11.109 L -5.476 1.957 L -7.406 1.957 L -12.829 10.871 L -12.829 0 L -16.85 0 L -16.85 18.516 L -13.305 18.516 L -6.375 7.01 L .449 18.516 L 3.968 18.516 L 4.021 0 Z " fill="#ffffff"/>
</g>
</g>
</g>
</svg>
